<svg xmlns="http://www.w3.org/2000/svg" viewBox="0 0 800 800" width="800" height="800">
  <rect width="800" height="800" fill="#f5efe2"/>
  <g transform="translate(280 280) scale(10)" fill="none" stroke="#1f3a2e" stroke-width="1.6" stroke-linecap="round" stroke-linejoin="round">
    <path d="M4 9a2 2 0 0 1-2-2V5h6v2a2 2 0 0 1-2 2Z" /><path d="M3 5V3" /><path d="M7 5V3" /><path d="M19 21a2 2 0 0 1-2-2v-2h6v2a2 2 0 0 1-2 2Z" /><path d="M21 21v-2" /><path d="M17 21v-2" /><path d="M5 9c0 4 8 7 8 11" /><path d="M19 17c0-4-8-7-8-11" />
  </g>
</svg>
