<svg xmlns="http://www.w3.org/2000/svg" viewBox="0 0 800 800" width="800" height="800">
  <rect width="800" height="800" fill="#f5efe2"/>
  <g transform="translate(280 280) scale(10)" fill="none" stroke="#1f3a2e" stroke-width="1.6" stroke-linecap="round" stroke-linejoin="round">
    <path d="M12 4V2" /><path d="M5 10H4a2 2 0 0 1-2-2V6a2 2 0 0 1 2-2h7l5 5v9a2 2 0 0 1-2 2H7a2 2 0 0 1-2-2v-8z" /><path d="M14 4h2a2 2 0 0 1 2 2v3" /><path d="M5 10v3" /><path d="M5 18v2" /><path d="M12 22v-6" />
  </g>
</svg>
