<svg xmlns="http://www.w3.org/2000/svg" viewBox="0 0 800 800" width="800" height="800">
  <rect width="800" height="800" fill="#f5efe2"/>
  <g transform="translate(280 280) scale(10)" fill="none" stroke="#1f3a2e" stroke-width="1.6" stroke-linecap="round" stroke-linejoin="round">
    <path d="m16 2-2.3 2.3a3 3 0 0 0 0 4.2l1.8 1.8a3 3 0 0 0 4.2 0L22 8" /><path d="M15 15 3.3 3.3a4.2 4.2 0 0 0 0 6l7.3 7.3c.7.7 2 .7 2.8 0L15 15Zm0 0 7 7" /><path d="M2.1 21.8 6.4 17.5" /><path d="M9 11.5 2.1 21.8" /><path d="M22 22l-2.83-2.83" /><path d="M14.5 14.5 18 18" />
  </g>
</svg>
